<svg xmlns="http://www.w3.org/2000/svg" xmlns:xlink="http://www.w3.org/1999/xlink" width="266" zoomAndPan="magnify" viewBox="0 0 199.5 54.75" height="73" preserveAspectRatio="xMidYMid meet" version="1.0"><defs><g/><clipPath id="18862edd2c"><path d="M 0.203125 0 L 52.597656 0 L 52.597656 54.5 L 0.203125 54.5 Z M 0.203125 0 " clip-rule="nonzero"/></clipPath><clipPath id="b4ac098039"><path d="M 30.300781 25.457031 L 6.914062 25.457031 C 6.007812 25.457031 5.351562 24.59375 5.597656 23.726562 L 12.019531 0.996094 C 12.183594 0.410156 12.722656 0.00390625 13.335938 0.00390625 L 36.722656 0.00390625 C 37.628906 0.00390625 38.285156 0.863281 38.039062 1.730469 L 31.621094 24.460938 C 31.453125 25.050781 30.914062 25.457031 30.300781 25.457031 Z M 15.113281 42.613281 L 18.417969 30.910156 C 18.664062 30.042969 18.007812 29.183594 17.097656 29.183594 L 5.078125 29.183594 C 4.464844 29.183594 3.925781 29.589844 3.761719 30.175781 L 0.453125 41.878906 C 0.210938 42.746094 0.867188 43.605469 1.773438 43.605469 L 13.792969 43.605469 C 14.40625 43.605469 14.945312 43.203125 15.113281 42.613281 Z M 21.195312 30.175781 L 14.773438 52.90625 C 14.53125 53.773438 15.1875 54.636719 16.09375 54.636719 L 39.480469 54.636719 C 40.09375 54.636719 40.632812 54.230469 40.796875 53.640625 L 47.21875 30.910156 C 47.460938 30.042969 46.804688 29.183594 45.898438 29.183594 L 22.511719 29.183594 C 21.898438 29.183594 21.359375 29.589844 21.195312 30.175781 Z M 37.703125 12.023438 L 34.398438 23.726562 C 34.152344 24.59375 34.808594 25.457031 35.714844 25.457031 L 47.738281 25.457031 C 48.351562 25.457031 48.890625 25.050781 49.054688 24.460938 L 52.359375 12.757812 C 52.605469 11.890625 51.949219 11.03125 51.042969 11.03125 L 39.019531 11.03125 C 38.40625 11.03125 37.867188 11.4375 37.703125 12.023438 Z M 37.703125 12.023438 " clip-rule="nonzero"/></clipPath><linearGradient x1="114.296453" gradientTransform="matrix(0.109976, 0, 0, 0.109264, 0.402501, 0.0029565)" y1="-47.633942" x2="358.181259" gradientUnits="userSpaceOnUse" y2="546.560574" id="431b64085a"><stop stop-opacity="1" stop-color="rgb(0%, 98.799133%, 65.899658%)" offset="0"/><stop stop-opacity="1" stop-color="rgb(0%, 98.799133%, 65.899658%)" offset="0.0625"/><stop stop-opacity="1" stop-color="rgb(0.0198364%, 98.774719%, 65.962219%)" offset="0.09375"/><stop stop-opacity="1" stop-color="rgb(0.0976562%, 98.680115%, 66.203308%)" offset="0.101563"/><stop stop-opacity="1" stop-color="rgb(0.213623%, 98.539734%, 66.56189%)" offset="0.109375"/><stop stop-opacity="1" stop-color="rgb(0.32959%, 98.400879%, 66.920471%)" offset="0.117188"/><stop stop-opacity="1" stop-color="rgb(0.444031%, 98.260498%, 67.279053%)" offset="0.125"/><stop stop-opacity="1" stop-color="rgb(0.559998%, 98.120117%, 67.63916%)" offset="0.132812"/><stop stop-opacity="1" stop-color="rgb(0.675964%, 97.979736%, 67.997742%)" offset="0.140625"/><stop stop-opacity="1" stop-color="rgb(0.791931%, 97.840881%, 68.356323%)" offset="0.148438"/><stop stop-opacity="1" stop-color="rgb(0.907898%, 97.7005%, 68.714905%)" offset="0.15625"/><stop stop-opacity="1" stop-color="rgb(1.023865%, 97.56012%, 69.073486%)" offset="0.164063"/><stop stop-opacity="1" stop-color="rgb(1.138306%, 97.421265%, 69.432068%)" offset="0.171875"/><stop stop-opacity="1" stop-color="rgb(1.254272%, 97.280884%, 69.790649%)" offset="0.179688"/><stop stop-opacity="1" stop-color="rgb(1.370239%, 97.140503%, 70.149231%)" offset="0.1875"/><stop stop-opacity="1" stop-color="rgb(1.486206%, 97.001648%, 70.509338%)" offset="0.195313"/><stop stop-opacity="1" stop-color="rgb(1.602173%, 96.861267%, 70.86792%)" offset="0.203125"/><stop stop-opacity="1" stop-color="rgb(1.71814%, 96.720886%, 71.226501%)" offset="0.210938"/><stop stop-opacity="1" stop-color="rgb(1.834106%, 96.580505%, 71.585083%)" offset="0.21875"/><stop stop-opacity="1" stop-color="rgb(1.948547%, 96.44165%, 71.943665%)" offset="0.226563"/><stop stop-opacity="1" stop-color="rgb(2.064514%, 96.30127%, 72.302246%)" offset="0.234375"/><stop stop-opacity="1" stop-color="rgb(2.180481%, 96.160889%, 72.660828%)" offset="0.242188"/><stop stop-opacity="1" stop-color="rgb(2.296448%, 96.022034%, 73.019409%)" offset="0.25"/><stop stop-opacity="1" stop-color="rgb(2.412415%, 95.881653%, 73.379517%)" offset="0.257813"/><stop stop-opacity="1" stop-color="rgb(2.528381%, 95.741272%, 73.738098%)" offset="0.265625"/><stop stop-opacity="1" stop-color="rgb(2.644348%, 95.600891%, 74.09668%)" offset="0.273438"/><stop stop-opacity="1" stop-color="rgb(2.758789%, 95.462036%, 74.455261%)" offset="0.28125"/><stop stop-opacity="1" stop-color="rgb(2.874756%, 95.321655%, 74.813843%)" offset="0.281608"/><stop stop-opacity="1" stop-color="rgb(2.932739%, 95.251465%, 74.993896%)" offset="0.289063"/><stop stop-opacity="1" stop-color="rgb(2.990723%, 95.181274%, 75.172424%)" offset="0.296875"/><stop stop-opacity="1" stop-color="rgb(3.106689%, 95.042419%, 75.531006%)" offset="0.304688"/><stop stop-opacity="1" stop-color="rgb(3.222656%, 94.902039%, 75.891113%)" offset="0.3125"/><stop stop-opacity="1" stop-color="rgb(3.338623%, 94.761658%, 76.249695%)" offset="0.320312"/><stop stop-opacity="1" stop-color="rgb(3.453064%, 94.622803%, 76.608276%)" offset="0.328125"/><stop stop-opacity="1" stop-color="rgb(3.569031%, 94.482422%, 76.966858%)" offset="0.335938"/><stop stop-opacity="1" stop-color="rgb(3.684998%, 94.342041%, 77.325439%)" offset="0.34375"/><stop stop-opacity="1" stop-color="rgb(3.800964%, 94.20166%, 77.684021%)" offset="0.351563"/><stop stop-opacity="1" stop-color="rgb(3.916931%, 94.062805%, 78.042603%)" offset="0.359375"/><stop stop-opacity="1" stop-color="rgb(4.032898%, 93.922424%, 78.401184%)" offset="0.367188"/><stop stop-opacity="1" stop-color="rgb(4.148865%, 93.782043%, 78.761292%)" offset="0.375"/><stop stop-opacity="1" stop-color="rgb(4.263306%, 93.643188%, 79.119873%)" offset="0.382813"/><stop stop-opacity="1" stop-color="rgb(4.379272%, 93.502808%, 79.478455%)" offset="0.390625"/><stop stop-opacity="1" stop-color="rgb(4.495239%, 93.362427%, 79.837036%)" offset="0.398438"/><stop stop-opacity="1" stop-color="rgb(4.611206%, 93.222046%, 80.195618%)" offset="0.40625"/><stop stop-opacity="1" stop-color="rgb(4.727173%, 93.083191%, 80.554199%)" offset="0.414063"/><stop stop-opacity="1" stop-color="rgb(4.84314%, 92.94281%, 80.912781%)" offset="0.421875"/><stop stop-opacity="1" stop-color="rgb(4.957581%, 92.802429%, 81.271362%)" offset="0.429688"/><stop stop-opacity="1" stop-color="rgb(5.073547%, 92.663574%, 81.63147%)" offset="0.4375"/><stop stop-opacity="1" stop-color="rgb(5.189514%, 92.523193%, 81.990051%)" offset="0.445313"/><stop stop-opacity="1" stop-color="rgb(5.305481%, 92.382812%, 82.348633%)" offset="0.453125"/><stop stop-opacity="1" stop-color="rgb(5.421448%, 92.242432%, 82.707214%)" offset="0.460938"/><stop stop-opacity="1" stop-color="rgb(5.537415%, 92.103577%, 83.065796%)" offset="0.46875"/><stop stop-opacity="1" stop-color="rgb(5.653381%, 91.963196%, 83.424377%)" offset="0.476563"/><stop stop-opacity="1" stop-color="rgb(5.767822%, 91.822815%, 83.782959%)" offset="0.484375"/><stop stop-opacity="1" stop-color="rgb(5.883789%, 91.68396%, 84.143066%)" offset="0.492188"/><stop stop-opacity="1" stop-color="rgb(5.999756%, 91.543579%, 84.501648%)" offset="0.5"/><stop stop-opacity="1" stop-color="rgb(6.115723%, 91.403198%, 84.860229%)" offset="0.507813"/><stop stop-opacity="1" stop-color="rgb(6.231689%, 91.264343%, 85.218811%)" offset="0.515625"/><stop stop-opacity="1" stop-color="rgb(6.347656%, 91.123962%, 85.577393%)" offset="0.523438"/><stop stop-opacity="1" stop-color="rgb(6.463623%, 90.983582%, 85.935974%)" offset="0.53125"/><stop stop-opacity="1" stop-color="rgb(6.578064%, 90.843201%, 86.294556%)" offset="0.539062"/><stop stop-opacity="1" stop-color="rgb(6.694031%, 90.704346%, 86.653137%)" offset="0.546875"/><stop stop-opacity="1" stop-color="rgb(6.809998%, 90.563965%, 87.013245%)" offset="0.554688"/><stop stop-opacity="1" stop-color="rgb(6.925964%, 90.423584%, 87.371826%)" offset="0.5625"/><stop stop-opacity="1" stop-color="rgb(7.041931%, 90.284729%, 87.730408%)" offset="0.570313"/><stop stop-opacity="1" stop-color="rgb(7.157898%, 90.144348%, 88.088989%)" offset="0.578125"/><stop stop-opacity="1" stop-color="rgb(7.272339%, 90.003967%, 88.447571%)" offset="0.585938"/><stop stop-opacity="1" stop-color="rgb(7.388306%, 89.863586%, 88.806152%)" offset="0.59375"/><stop stop-opacity="1" stop-color="rgb(7.504272%, 89.724731%, 89.164734%)" offset="0.601563"/><stop stop-opacity="1" stop-color="rgb(7.620239%, 89.584351%, 89.523315%)" offset="0.609375"/><stop stop-opacity="1" stop-color="rgb(7.736206%, 89.44397%, 89.883423%)" offset="0.617188"/><stop stop-opacity="1" stop-color="rgb(7.852173%, 89.305115%, 90.242004%)" offset="0.625"/><stop stop-opacity="1" stop-color="rgb(7.96814%, 89.164734%, 90.600586%)" offset="0.632813"/><stop stop-opacity="1" stop-color="rgb(8.082581%, 89.024353%, 90.959167%)" offset="0.640625"/><stop stop-opacity="1" stop-color="rgb(8.198547%, 88.883972%, 91.317749%)" offset="0.648438"/><stop stop-opacity="1" stop-color="rgb(8.314514%, 88.745117%, 91.676331%)" offset="0.65625"/><stop stop-opacity="1" stop-color="rgb(8.430481%, 88.604736%, 92.034912%)" offset="0.664063"/><stop stop-opacity="1" stop-color="rgb(8.546448%, 88.464355%, 92.39502%)" offset="0.671875"/><stop stop-opacity="1" stop-color="rgb(8.662415%, 88.3255%, 92.753601%)" offset="0.679688"/><stop stop-opacity="1" stop-color="rgb(8.776855%, 88.18512%, 93.112183%)" offset="0.6875"/><stop stop-opacity="1" stop-color="rgb(8.892822%, 88.044739%, 93.470764%)" offset="0.695313"/><stop stop-opacity="1" stop-color="rgb(9.008789%, 87.905884%, 93.829346%)" offset="0.703125"/><stop stop-opacity="1" stop-color="rgb(9.124756%, 87.765503%, 94.187927%)" offset="0.710938"/><stop stop-opacity="1" stop-color="rgb(9.240723%, 87.625122%, 94.546509%)" offset="0.718392"/><stop stop-opacity="1" stop-color="rgb(9.298706%, 87.554932%, 94.726562%)" offset="0.71875"/><stop stop-opacity="1" stop-color="rgb(9.356689%, 87.484741%, 94.90509%)" offset="0.726562"/><stop stop-opacity="1" stop-color="rgb(9.472656%, 87.345886%, 95.265198%)" offset="0.734375"/><stop stop-opacity="1" stop-color="rgb(9.587097%, 87.205505%, 95.623779%)" offset="0.742188"/><stop stop-opacity="1" stop-color="rgb(9.703064%, 87.065125%, 95.982361%)" offset="0.75"/><stop stop-opacity="1" stop-color="rgb(9.819031%, 86.92627%, 96.340942%)" offset="0.757813"/><stop stop-opacity="1" stop-color="rgb(9.934998%, 86.785889%, 96.699524%)" offset="0.765625"/><stop stop-opacity="1" stop-color="rgb(10.050964%, 86.645508%, 97.058105%)" offset="0.773438"/><stop stop-opacity="1" stop-color="rgb(10.166931%, 86.505127%, 97.416687%)" offset="0.78125"/><stop stop-opacity="1" stop-color="rgb(10.282898%, 86.366272%, 97.775269%)" offset="0.789062"/><stop stop-opacity="1" stop-color="rgb(10.397339%, 86.225891%, 98.135376%)" offset="0.796875"/><stop stop-opacity="1" stop-color="rgb(10.513306%, 86.08551%, 98.493958%)" offset="0.804688"/><stop stop-opacity="1" stop-color="rgb(10.629272%, 85.946655%, 98.852539%)" offset="0.8125"/><stop stop-opacity="1" stop-color="rgb(10.745239%, 85.806274%, 99.211121%)" offset="0.820312"/><stop stop-opacity="1" stop-color="rgb(10.861206%, 85.665894%, 99.569702%)" offset="0.828125"/><stop stop-opacity="1" stop-color="rgb(10.958862%, 85.546875%, 99.874878%)" offset="0.84375"/><stop stop-opacity="1" stop-color="rgb(10.998535%, 85.499573%, 100%)" offset="0.875"/><stop stop-opacity="1" stop-color="rgb(10.998535%, 85.499573%, 100%)" offset="1"/></linearGradient></defs><g fill="#ffffff" fill-opacity="1"><g transform="translate(52.68728, 41.992456)"><g><path d="M 7.703125 0.1875 C 6.515625 0.1875 5.445312 -0.0195312 4.5 -0.4375 C 3.5625 -0.863281 2.828125 -1.453125 2.296875 -2.203125 C 1.765625 -2.953125 1.488281 -3.820312 1.46875 -4.8125 L 3.984375 -4.8125 C 4.066406 -3.96875 4.410156 -3.253906 5.015625 -2.671875 C 5.628906 -2.097656 6.523438 -1.8125 7.703125 -1.8125 C 8.816406 -1.8125 9.695312 -2.085938 10.34375 -2.640625 C 10.988281 -3.203125 11.3125 -3.925781 11.3125 -4.8125 C 11.3125 -5.5 11.125 -6.054688 10.75 -6.484375 C 10.375 -6.921875 9.898438 -7.25 9.328125 -7.46875 C 8.765625 -7.695312 8 -7.9375 7.03125 -8.1875 C 5.84375 -8.5 4.890625 -8.8125 4.171875 -9.125 C 3.453125 -9.4375 2.835938 -9.921875 2.328125 -10.578125 C 1.828125 -11.242188 1.578125 -12.140625 1.578125 -13.265625 C 1.578125 -14.242188 1.828125 -15.109375 2.328125 -15.859375 C 2.828125 -16.617188 3.523438 -17.207031 4.421875 -17.625 C 5.328125 -18.039062 6.367188 -18.25 7.546875 -18.25 C 9.234375 -18.25 10.613281 -17.828125 11.6875 -16.984375 C 12.769531 -16.140625 13.378906 -15.019531 13.515625 -13.625 L 10.9375 -13.625 C 10.84375 -14.3125 10.476562 -14.914062 9.84375 -15.4375 C 9.207031 -15.96875 8.363281 -16.234375 7.3125 -16.234375 C 6.332031 -16.234375 5.53125 -15.976562 4.90625 -15.46875 C 4.289062 -14.957031 3.984375 -14.242188 3.984375 -13.328125 C 3.984375 -12.679688 4.164062 -12.148438 4.53125 -11.734375 C 4.90625 -11.316406 5.363281 -11 5.90625 -10.78125 C 6.445312 -10.570312 7.207031 -10.328125 8.1875 -10.046875 C 9.375 -9.722656 10.328125 -9.398438 11.046875 -9.078125 C 11.773438 -8.765625 12.398438 -8.273438 12.921875 -7.609375 C 13.441406 -6.941406 13.703125 -6.039062 13.703125 -4.90625 C 13.703125 -4.03125 13.46875 -3.203125 13 -2.421875 C 12.53125 -1.648438 11.835938 -1.019531 10.921875 -0.53125 C 10.015625 -0.0507812 8.941406 0.1875 7.703125 0.1875 Z M 7.703125 0.1875 "/></g></g></g><g fill="#ffffff" fill-opacity="1"><g transform="translate(67.855641, 41.992456)"><g><path d="M 1.109375 -7.140625 C 1.109375 -8.578125 1.398438 -9.84375 1.984375 -10.9375 C 2.578125 -12.039062 3.382812 -12.890625 4.40625 -13.484375 C 5.425781 -14.085938 6.566406 -14.390625 7.828125 -14.390625 C 9.066406 -14.390625 10.144531 -14.125 11.0625 -13.59375 C 11.976562 -13.0625 12.660156 -12.390625 13.109375 -11.578125 L 13.109375 -14.15625 L 15.484375 -14.15625 L 15.484375 0 L 13.109375 0 L 13.109375 -2.640625 C 12.640625 -1.804688 11.941406 -1.117188 11.015625 -0.578125 C 10.097656 -0.0351562 9.03125 0.234375 7.8125 0.234375 C 6.550781 0.234375 5.410156 -0.0703125 4.390625 -0.6875 C 3.378906 -1.3125 2.578125 -2.179688 1.984375 -3.296875 C 1.398438 -4.421875 1.109375 -5.703125 1.109375 -7.140625 Z M 13.109375 -7.109375 C 13.109375 -8.171875 12.890625 -9.097656 12.453125 -9.890625 C 12.023438 -10.691406 11.441406 -11.300781 10.703125 -11.71875 C 9.972656 -12.144531 9.171875 -12.359375 8.296875 -12.359375 C 7.421875 -12.359375 6.617188 -12.148438 5.890625 -11.734375 C 5.171875 -11.316406 4.59375 -10.710938 4.15625 -9.921875 C 3.726562 -9.128906 3.515625 -8.203125 3.515625 -7.140625 C 3.515625 -6.046875 3.726562 -5.097656 4.15625 -4.296875 C 4.59375 -3.492188 5.171875 -2.878906 5.890625 -2.453125 C 6.617188 -2.035156 7.421875 -1.828125 8.296875 -1.828125 C 9.171875 -1.828125 9.972656 -2.035156 10.703125 -2.453125 C 11.441406 -2.878906 12.023438 -3.492188 12.453125 -4.296875 C 12.890625 -5.097656 13.109375 -6.035156 13.109375 -7.109375 Z M 13.109375 -7.109375 "/></g></g></g><g fill="#ffffff" fill-opacity="1"><g transform="translate(85.323816, 41.992456)"><g><path d="M 19.015625 -14.421875 C 20.117188 -14.421875 21.101562 -14.191406 21.96875 -13.734375 C 22.832031 -13.273438 23.515625 -12.585938 24.015625 -11.671875 C 24.515625 -10.765625 24.765625 -9.65625 24.765625 -8.34375 L 24.765625 0 L 22.4375 0 L 22.4375 -8.015625 C 22.4375 -9.421875 22.085938 -10.5 21.390625 -11.25 C 20.691406 -12 19.75 -12.375 18.5625 -12.375 C 17.332031 -12.375 16.351562 -11.984375 15.625 -11.203125 C 14.90625 -10.421875 14.546875 -9.289062 14.546875 -7.8125 L 14.546875 0 L 12.21875 0 L 12.21875 -8.015625 C 12.21875 -9.421875 11.867188 -10.5 11.171875 -11.25 C 10.472656 -12 9.53125 -12.375 8.34375 -12.375 C 7.125 -12.375 6.148438 -11.984375 5.421875 -11.203125 C 4.703125 -10.421875 4.34375 -9.289062 4.34375 -7.8125 L 4.34375 0 L 1.984375 0 L 1.984375 -14.15625 L 4.34375 -14.15625 L 4.34375 -12.125 C 4.8125 -12.863281 5.4375 -13.429688 6.21875 -13.828125 C 7 -14.222656 7.863281 -14.421875 8.8125 -14.421875 C 10 -14.421875 11.046875 -14.148438 11.953125 -13.609375 C 12.867188 -13.078125 13.550781 -12.296875 14 -11.265625 C 14.40625 -12.265625 15.0625 -13.039062 15.96875 -13.59375 C 16.882812 -14.144531 17.898438 -14.421875 19.015625 -14.421875 Z M 19.015625 -14.421875 "/></g></g></g><g fill="#ffffff" fill-opacity="1"><g transform="translate(111.939523, 41.992456)"><g><path d="M 19.015625 -14.421875 C 20.117188 -14.421875 21.101562 -14.191406 21.96875 -13.734375 C 22.832031 -13.273438 23.515625 -12.585938 24.015625 -11.671875 C 24.515625 -10.765625 24.765625 -9.65625 24.765625 -8.34375 L 24.765625 0 L 22.4375 0 L 22.4375 -8.015625 C 22.4375 -9.421875 22.085938 -10.5 21.390625 -11.25 C 20.691406 -12 19.75 -12.375 18.5625 -12.375 C 17.332031 -12.375 16.351562 -11.984375 15.625 -11.203125 C 14.90625 -10.421875 14.546875 -9.289062 14.546875 -7.8125 L 14.546875 0 L 12.21875 0 L 12.21875 -8.015625 C 12.21875 -9.421875 11.867188 -10.5 11.171875 -11.25 C 10.472656 -12 9.53125 -12.375 8.34375 -12.375 C 7.125 -12.375 6.148438 -11.984375 5.421875 -11.203125 C 4.703125 -10.421875 4.34375 -9.289062 4.34375 -7.8125 L 4.34375 0 L 1.984375 0 L 1.984375 -14.15625 L 4.34375 -14.15625 L 4.34375 -12.125 C 4.8125 -12.863281 5.4375 -13.429688 6.21875 -13.828125 C 7 -14.222656 7.863281 -14.421875 8.8125 -14.421875 C 10 -14.421875 11.046875 -14.148438 11.953125 -13.609375 C 12.867188 -13.078125 13.550781 -12.296875 14 -11.265625 C 14.40625 -12.265625 15.0625 -13.039062 15.96875 -13.59375 C 16.882812 -14.144531 17.898438 -14.421875 19.015625 -14.421875 Z M 19.015625 -14.421875 "/></g></g></g><g fill="#ffffff" fill-opacity="1"><g transform="translate(138.555231, 41.992456)"><g><path d="M 3.203125 -16.46875 C 2.753906 -16.46875 2.375 -16.617188 2.0625 -16.921875 C 1.757812 -17.234375 1.609375 -17.613281 1.609375 -18.0625 C 1.609375 -18.507812 1.757812 -18.890625 2.0625 -19.203125 C 2.375 -19.515625 2.753906 -19.671875 3.203125 -19.671875 C 3.628906 -19.671875 3.992188 -19.515625 4.296875 -19.203125 C 4.597656 -18.890625 4.75 -18.507812 4.75 -18.0625 C 4.75 -17.613281 4.597656 -17.234375 4.296875 -16.921875 C 3.992188 -16.617188 3.628906 -16.46875 3.203125 -16.46875 Z M 4.34375 -14.15625 L 4.34375 0 L 1.984375 0 L 1.984375 -14.15625 Z M 4.34375 -14.15625 "/></g></g></g><g fill="#5ce1e6" fill-opacity="1"><g transform="translate(144.909441, 41.992456)"><g><path d="M 14.03125 -12.734375 C 14.03125 -11.242188 13.515625 -10 12.484375 -9 C 11.460938 -8.007812 9.90625 -7.515625 7.8125 -7.515625 L 4.34375 -7.515625 L 4.34375 0 L 1.984375 0 L 1.984375 -18.015625 L 7.8125 -18.015625 C 9.84375 -18.015625 11.382812 -17.519531 12.4375 -16.53125 C 13.5 -15.550781 14.03125 -14.285156 14.03125 -12.734375 Z M 7.8125 -9.453125 C 9.113281 -9.453125 10.070312 -9.738281 10.6875 -10.3125 C 11.3125 -10.882812 11.625 -11.691406 11.625 -12.734375 C 11.625 -14.960938 10.351562 -16.078125 7.8125 -16.078125 L 4.34375 -16.078125 L 4.34375 -9.453125 Z M 7.8125 -9.453125 "/></g></g></g><g fill="#5ce1e6" fill-opacity="1"><g transform="translate(159.87108, 41.992456)"><g><path d="M 1.109375 -7.140625 C 1.109375 -8.578125 1.398438 -9.84375 1.984375 -10.9375 C 2.578125 -12.039062 3.382812 -12.890625 4.40625 -13.484375 C 5.425781 -14.085938 6.566406 -14.390625 7.828125 -14.390625 C 9.066406 -14.390625 10.144531 -14.125 11.0625 -13.59375 C 11.976562 -13.0625 12.660156 -12.390625 13.109375 -11.578125 L 13.109375 -14.15625 L 15.484375 -14.15625 L 15.484375 0 L 13.109375 0 L 13.109375 -2.640625 C 12.640625 -1.804688 11.941406 -1.117188 11.015625 -0.578125 C 10.097656 -0.0351562 9.03125 0.234375 7.8125 0.234375 C 6.550781 0.234375 5.410156 -0.0703125 4.390625 -0.6875 C 3.378906 -1.3125 2.578125 -2.179688 1.984375 -3.296875 C 1.398438 -4.421875 1.109375 -5.703125 1.109375 -7.140625 Z M 13.109375 -7.109375 C 13.109375 -8.171875 12.890625 -9.097656 12.453125 -9.890625 C 12.023438 -10.691406 11.441406 -11.300781 10.703125 -11.71875 C 9.972656 -12.144531 9.171875 -12.359375 8.296875 -12.359375 C 7.421875 -12.359375 6.617188 -12.148438 5.890625 -11.734375 C 5.171875 -11.316406 4.59375 -10.710938 4.15625 -9.921875 C 3.726562 -9.128906 3.515625 -8.203125 3.515625 -7.140625 C 3.515625 -6.046875 3.726562 -5.097656 4.15625 -4.296875 C 4.59375 -3.492188 5.171875 -2.878906 5.890625 -2.453125 C 6.617188 -2.035156 7.421875 -1.828125 8.296875 -1.828125 C 9.171875 -1.828125 9.972656 -2.035156 10.703125 -2.453125 C 11.441406 -2.878906 12.023438 -3.492188 12.453125 -4.296875 C 12.890625 -5.097656 13.109375 -6.035156 13.109375 -7.109375 Z M 13.109375 -7.109375 "/></g></g></g><g fill="#5ce1e6" fill-opacity="1"><g transform="translate(177.339255, 41.992456)"><g><path d="M 14.1875 -14.15625 L 5.65625 6.671875 L 3.234375 6.671875 L 6.015625 -0.15625 L 0.3125 -14.15625 L 2.921875 -14.15625 L 7.359375 -2.6875 L 11.765625 -14.15625 Z M 14.1875 -14.15625 "/></g></g></g><g clip-path="url(#18862edd2c)"><g clip-path="url(#b4ac098039)"><path fill="url(#431b64085a)" d="M 0.210938 0.00390625 L 0.210938 54.5 L 52.597656 54.5 L 52.597656 0.00390625 Z M 0.210938 0.00390625 " fill-rule="nonzero"/></g></g></svg>